<svg width="180" height="180" viewBox="0 0 180 180" fill="none" xmlns="http://www.w3.org/2000/svg">
  <defs>
    <linearGradient id="bg" x1="0" y1="0" x2="180" y2="180" gradientUnits="userSpaceOnUse">
      <stop offset="0%" stop-color="#0B1628"/>
      <stop offset="100%" stop-color="#122040"/>
    </linearGradient>
  </defs>

  <!-- Background square with rounded corners -->
  <rect width="180" height="180" rx="34" fill="url(#bg)"/>

  <!--
    SkylineIcon reproduced exactly from logo-brand.tsx mode="white"
    Original viewBox: 0 0 96 68
    Scale 1.55, translated to center in 180x180:
      scaled w = 96*1.55 = 148.8  → left margin = (180-148.8)/2 = 15.6 → ~16
      scaled h = 68*1.55 = 105.4  → top margin  = (180-105.4)/2 = 37.3 → ~37
  -->
  <g transform="translate(16 37) scale(1.55)">

    <!-- Ground line -->
    <rect x="0" y="60" width="96" height="4" rx="2"
          fill="rgba(255,255,255,0.9)" opacity="0.4"/>

    <!-- Left building -->
    <rect x="4"  y="20" width="12" height="40" rx="2.5"
          fill="rgba(255,255,255,0.9)"/>

    <!-- Second building (shorter) -->
    <rect x="20" y="38" width="9"  height="22" rx="2"
          fill="rgba(255,255,255,0.9)" opacity="0.7"/>

    <!-- Third building -->
    <rect x="33" y="28" width="11" height="32" rx="2.5"
          fill="rgba(255,255,255,0.9)"/>

    <!-- Center tall building -->
    <rect x="48" y="10" width="13" height="50" rx="2.5"
          fill="rgba(255,255,255,0.9)"/>

    <!-- Right-center building -->
    <rect x="65" y="30" width="11" height="30" rx="2.5"
          fill="rgba(255,255,255,0.9)"/>

    <!-- Right short building -->
    <rect x="80" y="40" width="9"  height="20" rx="2"
          fill="rgba(255,255,255,0.9)" opacity="0.7"/>

    <!-- Antenna stem -->
    <rect x="54" y="4" width="1.5" height="8" rx="0.75"
          fill="rgba(255,255,255,0.9)"/>

    <!-- Antenna dot -->
    <circle cx="54.75" cy="3.5" r="2"
            fill="rgba(255,255,255,0.9)"/>

    <!-- Windows (dark on white buildings) -->
    <rect x="7"  y="25" width="2.5" height="2" rx="0.5" fill="rgba(0,0,0,0.2)"/>
    <rect x="11" y="25" width="2.5" height="2" rx="0.5" fill="rgba(0,0,0,0.2)"/>
    <rect x="7"  y="30" width="2.5" height="2" rx="0.5" fill="rgba(0,0,0,0.2)"/>
    <rect x="11" y="30" width="2.5" height="2" rx="0.5" fill="rgba(0,0,0,0.2)"/>
    <rect x="51" y="15" width="2.5" height="2" rx="0.5" fill="rgba(0,0,0,0.2)"/>
    <rect x="55" y="15" width="2.5" height="2" rx="0.5" fill="rgba(0,0,0,0.2)"/>
    <rect x="51" y="21" width="2.5" height="2" rx="0.5" fill="rgba(0,0,0,0.2)"/>
    <rect x="55" y="21" width="2.5" height="2" rx="0.5" fill="rgba(0,0,0,0.2)"/>
  </g>
</svg>
